<svg width="128" height="128" viewBox="0 0 128 128" xmlns="http://www.w3.org/2000/svg"><rect width="128" height="128" rx="28" fill="#1a1f28"/><g transform="translate(14, 14)"><path fill="#FFFFFF" d="M84.3,25.4C75.2,16.3,62,11.2,48.2,11.2C22.6,11.2,2.1,31.7,2.1,57.3c0,14.6,6.8,27.7,17.2,36.5 c4.5,3.8,9.8,6.5,15.6,8.1c3.5,1,7.2,1.5,10.9,1.5c20.2,0,37.3-12.4,43.6-30.7C97.1,38.2,91.8,31,84.3,25.4z M48.7,41.9c-2.4,0-4.4,2-4.4,4.4c0,2.4,2,4.4,4.4,4.4s4.4-2,4.4-4.4 C53.1,43.9,51.1,41.9,48.7,41.9z M70.5,50.7c-2.4,0-4.4,2-4.4,4.4c0,2.4,2,4.4,4.4,4.4s4.4-2,4.4-4.4 C74.9,52.7,72.9,50.7,70.5,50.7z M38.4,26.8c1.3,0,2.4,1.1,2.4,2.4c0,1.3-1.1,2.4-2.4,2.4s-2.4-1.1-2.4-2.4 C36,27.9,37.1,26.8,38.4,26.8z M59,20c1.3,0,2.4,1.1,2.4,2.4c0,1.3-1.1,2.4-2.4,2.4s-2.4-1.1-2.4-2.4 C56.6,21.1,57.7,20,59,20z"/><path fill="#FFFFFF" d="M48.7,53.4c-0.9,0-1.6,0.7-1.6,1.6c0,4.8-3.9,8.7-8.7,8.7c-0.9,0-1.6,0.7-1.6,1.6c0,0.9,0.7,1.6,1.6,1.6 c6.6,0,11.9-5.3,11.9-11.9C50.3,54.1,49.6,53.4,48.7,53.4z"/></g></svg>
